<?xml version="1.0" encoding="utf-8"?>
<!-- Generator: Adobe Illustrator 16.0.0, SVG Export Plug-In . SVG Version: 6.00 Build 0)  -->
<!DOCTYPE svg PUBLIC "-//W3C//DTD SVG 1.1//EN" "http://www.w3.org/Graphics/SVG/1.1/DTD/svg11.dtd">
<svg version="1.1" id="Layer_1" xmlns="http://www.w3.org/2000/svg" xmlns:xlink="http://www.w3.org/1999/xlink" x="0px" y="0px"
	 width="489.029px" height="488.721px" viewBox="0 0 489.029 488.721" enable-background="new 0 0 489.029 488.721"
	 xml:space="preserve">
<g>
	<g>
		<g>
			<path fill="#F5F5F5" d="M81.432,207.719l-23.3-6.627l-1.172,4.119l8.942,4.587l-1.251,4.397l-12.841-4.34l7.846-27.583
				l13.175,3.166l-1.178,4.14l-10.051-0.686l-1.115,3.92l23.3,6.627l2.072-5.499l2.978,0.847l-5.412,19.026l-2.978-0.848
				L81.432,207.719z"/>
		</g>
		<g>
			<path fill="#F5F5F5" d="M67.336,174.104l-1.661,1.917l-3.062-1.558l6.745-13.26l3.062,1.558l-0.977,3.449l13.634,6.935
				c5.253,2.671,8.783,2.23,10.59-1.323c0.919-1.807,0.873-3.475-0.14-5.004c-1.013-1.528-2.723-2.905-5.132-4.13l-13.707-6.971
				l-2.224,3.024l-3.062-1.558l5.252-10.328l3.062,1.558l-0.646,2.619l13.313,6.771c3.856,1.961,6.181,4.382,6.975,7.262
				c0.794,2.88,0.328,6.017-1.398,9.41c-2.045,4.021-4.489,6.577-7.334,7.668c-2.844,1.091-6.237,0.635-10.178-1.37L67.336,174.104z
				"/>
		</g>
		<g>
			<path fill="#F5F5F5" d="M111.894,145.485l-17.732-15.694l-2.446,1.842l-2.681-2.373l4.95-5.593
				c0.247-0.279,0.763-0.862,1.55-1.751c1.06-1.198,2.002-2.262,2.825-3.192c2.167-2.448,4.135-4.137,5.904-5.067
				c1.77-0.93,3.426-1.227,4.969-0.894c1.543,0.334,3.121,1.215,4.734,2.643c2.756,2.439,4.167,5.135,4.233,8.084
				s-1.319,6.026-4.153,9.228c-0.338,0.382-0.658,0.744-0.96,1.084s-0.522,0.569-0.662,0.685l5.16,4.566l3.99-3.791l2.355,2.084
				l-11.368,12.845l-2.355-2.084L111.894,145.485z M112.346,127.137c-0.427-1.419-1.754-3.113-3.98-5.084
				c-3.354-2.969-6.038-3.317-8.048-1.044c-0.329,0.372-0.565,0.665-0.709,0.878c-0.144,0.214-0.25,0.392-0.32,0.532
				c-0.07,0.141-0.127,0.247-0.171,0.318l10.85,9.603c0.432-0.263,0.968-0.755,1.607-1.479
				C112.516,129.797,112.773,128.556,112.346,127.137z"/>
		</g>
		<g>
			<path fill="#F5F5F5" d="M132.19,123.696l-14.602-18.695l-2.74,1.365l-2.178-2.789l5.544-4.33c0.793-0.62,1.642-1.282,2.544-1.987
				c1.261-0.985,2.359-1.842,3.294-2.573c2.456-1.918,4.582-3.225,6.377-3.919c1.795-0.693,3.39-0.82,4.783-0.38
				s2.715,1.459,3.963,3.058c0.712,0.912,1.259,1.948,1.641,3.109s0.512,2.381,0.391,3.659c-0.122,1.278-0.586,2.5-1.392,3.665
				c1.03-0.384,2.101-0.499,3.211-0.342c1.111,0.156,2.145,0.448,3.099,0.875c0.955,0.427,2.073,0.99,3.353,1.688
				c1.041,0.57,1.839,0.971,2.396,1.201s1,0.278,1.331,0.142l1.032-0.36l1.936,2.479l-7.224,5.642
				c-0.337,0.264-0.932,0.168-1.785-0.286c-0.854-0.454-2.102-1.229-3.746-2.325c-1.325-0.89-2.432-1.606-3.318-2.147
				s-1.746-0.964-2.578-1.268s-1.512-0.355-2.037-0.155l-2.397,1.872l5.884,7.534l3.102-1.845l1.936,2.479l-12.018,9.386
				l-1.936-2.479L132.19,123.696z M134.494,103.855c-0.127-1.305-0.896-2.861-2.309-4.669c-1.227-1.571-2.379-2.486-3.456-2.746
				c-1.078-0.258-2.22,0.083-3.427,1.025c-0.848,0.662-1.355,1.167-1.523,1.512l7.359,9.422c0.15-0.031,0.444-0.209,0.883-0.534
				c0.438-0.325,0.804-0.602,1.097-0.831C134.162,106.22,134.621,105.16,134.494,103.855z"/>
		</g>
		<g>
			<path fill="#F5F5F5" d="M159.012,104.398L147.353,83.56l-3.12,1.035l-1.637-2.925l13.254-7.416l1.637,2.925l-2.622,2.178
				l11.669,20.855l3.178-1.185l1.516,2.708l-13.2,7.385l-1.535-2.745L159.012,104.398z"/>
		</g>
		<g>
			<path fill="#F5F5F5" d="M174.336,95.243l-4.833-23.568l-4.027,0.671l-1.047-3.184l14.761-4.856l9.462,14.792l2.039,3.881
				l-0.742-4.308l-2.013-17.243l15.017-4.939l1.047,3.184l-4.11,2.005l10.901,21.55l3.319-0.569l0.982,2.987l-14.879,4.895
				l-0.982-2.988l3.127-1.551l-7.315-16.413l-2.997-6.529l0.858,6.383l2.23,21.614l-6.663,2.192l-12.081-17.59l-3.679-6.283
				l1.844,6.93l4.492,17.364l4.303-0.893l0.982,2.987l-12.166,4.002l-0.983-2.988L174.336,95.243z"/>
		</g>
		<g>
			<path fill="#F5F5F5" d="M219.077,82.617l-2.303-23.701l-3.261-0.393l-0.324-3.336l23.807-2.313l1.346,7.855l-3.811,0.371
				l-2.03-4.421l-7.229,0.703l0.989,10.173l4.222-0.41l0.467-3.538l3.172-0.308l1.068,10.997l-3.172,0.309l-1.126-3.674
				l-4.263,0.414l1.052,10.833l7.847-1.407l2.184-5.763l4.25,0.73l-0.107,8.305l-25.496,2.477l-0.304-3.13L219.077,82.617z"/>
		</g>
		<g>
			<path fill="#F5F5F5" d="M247.994,80.521l1.963-23.64l-2.939-0.857l0.293-3.526l7.011,0.582c1.004,0.083,2.075,0.172,3.217,0.267
				c1.595,0.132,2.982,0.248,4.165,0.346c3.106,0.258,5.555,0.741,7.344,1.45s3.046,1.697,3.771,2.966
				c0.725,1.269,1.004,2.915,0.836,4.936c-0.096,1.153-0.397,2.286-0.905,3.397c-0.508,1.112-1.24,2.096-2.196,2.952
				c-0.957,0.856-2.127,1.439-3.509,1.748c1.017,0.417,1.881,1.059,2.591,1.928s1.271,1.784,1.682,2.746
				c0.412,0.961,0.851,2.133,1.317,3.514c0.377,1.125,0.691,1.961,0.944,2.508c0.252,0.547,0.546,0.883,0.882,1.007l1.002,0.436
				l-0.261,3.134l-9.135-0.758c-0.426-0.036-0.798-0.509-1.117-1.422c-0.318-0.912-0.71-2.329-1.173-4.25
				c-0.369-1.553-0.696-2.83-0.979-3.829c-0.284-1-0.629-1.893-1.033-2.681c-0.405-0.788-0.869-1.287-1.392-1.496l-3.031-0.252
				l-0.791,9.526l3.529,0.75l-0.26,3.134l-15.197-1.262l0.26-3.134L247.994,80.521z M263.151,67.512
				c0.792-1.044,1.283-2.71,1.474-4.996c0.165-1.987-0.061-3.441-0.676-4.362c-0.616-0.921-1.687-1.446-3.212-1.572
				c-1.072-0.089-1.788-0.063-2.146,0.077l-0.989,11.915c0.132,0.079,0.469,0.148,1.011,0.207s0.998,0.103,1.369,0.134
				C261.303,69.023,262.358,68.556,263.151,67.512z"/>
		</g>
		<g>
			<path fill="#F5F5F5" d="M297.353,67.355c2.085-1.846,4.473-2.969,7.163-3.369c2.689-0.4,5.493-0.09,8.41,0.93
				c1.08,0.378,2.11,0.797,3.089,1.256c0.979,0.46,2.146,1.029,3.502,1.708c0.546,0.278,1.068,0.538,1.569,0.779
				c0.5,0.241,0.894,0.412,1.18,0.512l-3.878,9.394l-5.059-1.77l0.75-7.031c-0.335-0.713-1.199-1.313-2.593-1.8
				c-1.771-0.619-3.477-0.149-5.118,1.41c-1.642,1.559-3.132,4.252-4.471,8.079c-0.853,2.438-1.377,4.625-1.572,6.562
				c-0.195,1.938-0.038,3.545,0.473,4.822c0.51,1.277,1.384,2.132,2.621,2.564c0.924,0.324,1.655,0.47,2.192,0.438
				c0.537-0.031,1.036-0.165,1.498-0.399l3.441-3.694l4.433,1.989l-3.016,6.554c-0.486-0.113-0.957-0.199-1.412-0.257
				c-0.454-0.059-1.029-0.117-1.726-0.174c-1.223-0.098-2.347-0.237-3.372-0.417c-1.026-0.18-2.255-0.521-3.688-1.021
				c-3.177-1.111-5.622-2.633-7.335-4.567c-1.713-1.933-2.714-4.17-3.001-6.71c-0.288-2.541,0.089-5.298,1.13-8.272
				C293.671,71.706,295.268,69.201,297.353,67.355z"/>
		</g>
		<g>
			<path fill="#F5F5F5" d="M316.732,96.06l21.617-19.752l7.952,4.517l-5.885,28.711l1.69,1.506l-1.554,2.735l-12.54-7.123
				l1.554-2.735l2.628,0.945l1.174-4.497l-7.845-4.456l-3.275,3.422l2.551,1.877l-1.554,2.735l-10.327-5.866l1.5-2.765
				L316.732,96.06z M334.327,96.796l3.126-11.998l0.872-2.456l-1.699,1.986l-8.56,8.911L334.327,96.796z"/>
		</g>
		<g>
			<path fill="#F5F5F5" d="M346.024,113.703l15.37-18.068l-1.89-2.41l2.293-2.695l5.358,4.558c0.768,0.652,1.587,1.35,2.459,2.092
				c1.219,1.037,2.279,1.939,3.184,2.708c2.374,2.02,4.082,3.839,5.123,5.457s1.487,3.154,1.337,4.608
				c-0.15,1.454-0.883,2.953-2.196,4.498c-0.75,0.881-1.655,1.626-2.715,2.234c-1.061,0.608-2.229,0.98-3.506,1.119
				c-1.276,0.138-2.566-0.07-3.869-0.625c0.584,0.931,0.911,1.957,0.981,3.077c0.071,1.119-0.007,2.19-0.232,3.211
				c-0.226,1.021-0.552,2.229-0.978,3.624c-0.349,1.134-0.58,1.996-0.693,2.588c-0.114,0.591-0.071,1.036,0.13,1.333l0.56,0.938
				l-2.038,2.396l-6.981-5.939c-0.325-0.277-0.353-0.879-0.079-1.806c0.272-0.927,0.779-2.306,1.522-4.138
				c0.604-1.477,1.083-2.705,1.435-3.682c0.352-0.978,0.593-1.905,0.723-2.781s0.044-1.552-0.259-2.027l-2.316-1.971l-6.194,7.281
				l2.432,2.666l-2.038,2.396l-11.615-9.881l2.038-2.396L346.024,113.703z M365.923,111.962c1.253-0.387,2.622-1.454,4.109-3.201
				c1.291-1.519,1.956-2.832,1.992-3.939s-0.528-2.157-1.694-3.149c-0.819-0.697-1.416-1.093-1.788-1.187l-7.747,9.106
				c0.062,0.141,0.295,0.393,0.701,0.757c0.406,0.363,0.751,0.666,1.035,0.907C363.54,112.114,364.67,112.35,365.923,111.962z"/>
		</g>
		<g>
			<path fill="#F5F5F5" d="M370.364,135.528l18.795-14.793l-1.576-2.973l2.635-2.073l7.409,9.414l-6.644,18.658l-2.742,5.213
				l14.291-11.249l-1.742-3.184l2.634-2.073l6.962,8.845l-2.634,2.073l-2.404-2.084l-21.641,17.033l-4.722-6l7.442-20.419
				l2.815-5.455l-16.047,12.631l2.515,3.998l-2.472,1.945l-7.768-9.869l2.471-1.945L370.364,135.528z"/>
		</g>
		<g>
			<path fill="#F5F5F5" d="M391.106,163.834l21.15-10.94l-0.846-3.173l2.977-1.54l10.989,21.245l-6.794,4.167l-1.759-3.4
				l3.352-3.527l-3.337-6.451l-9.079,4.696l1.949,3.768l3.458-0.88l1.464,2.83l-9.813,5.076l-1.464-2.83l2.993-2.41l-1.968-3.804
				l-9.667,5l4.22,6.762l6.162-0.112l0.899,4.217l-7.751,2.984l-11.769-22.752l2.794-1.445L391.106,163.834z"/>
		</g>
		<g>
			<path fill="#F5F5F5" d="M405.819,196.757l23.179-7.038l-1.244-4.098l-10.002,0.982l-1.328-4.375l13.146-3.3l8.332,27.44
				l-12.792,4.469l-1.251-4.119l8.823-4.862l-1.184-3.9l-23.18,7.038l1.233,5.744l-2.962,0.9l-5.747-18.928l2.963-0.899
				L405.819,196.757z"/>
		</g>
	</g>
	<g>
		<path fill="#F5F5F5" d="M135.521,368.619l2.771-3.79l18.486,13.514l-2.771,3.791l-6.742-4.929l-14.514,19.852l-4.971-3.634
			l14.514-19.853L135.521,368.619z"/>
		<path fill="#F5F5F5" d="M174.769,388.226l-2.265,4.113l-10.282-5.661l-3.509,6.371l7.89,4.344l-2.237,4.062l-7.889-4.344
			l-3.787,6.878l11.378,6.265l-2.329,4.23L145,405.269l14.126-25.655L174.769,388.226z"/>
		<path fill="#F5F5F5" d="M170.938,411.316c0.682,0.822,1.571,1.643,2.668,2.463s2.318,1.497,3.667,2.03
			c1.467,0.58,2.585,0.771,3.354,0.569s1.339-0.768,1.707-1.7c0.249-0.63,0.311-1.222,0.186-1.776
			c-0.125-0.556-0.455-1.194-0.989-1.918c-0.535-0.724-1.41-1.744-2.628-3.062c-1.621-1.761-2.802-3.535-3.543-5.324
			c-0.74-1.789-0.724-3.663,0.052-5.621c0.663-1.678,1.627-2.884,2.89-3.617s2.703-1.061,4.32-0.98
			c1.616,0.08,3.325,0.477,5.127,1.189c1.55,0.613,2.895,1.339,4.033,2.176c1.138,0.836,1.93,1.563,2.375,2.182l-2.681,4.057
			c-0.608-0.836-1.328-1.604-2.16-2.308c-0.833-0.703-1.863-1.298-3.092-1.784c-1.443-0.571-2.577-0.746-3.402-0.527
			c-0.825,0.22-1.41,0.767-1.756,1.641c-0.245,0.618-0.297,1.211-0.156,1.779c0.142,0.567,0.442,1.176,0.903,1.823
			s1.195,1.548,2.201,2.701c1.367,1.565,2.421,2.902,3.162,4.012c0.741,1.108,1.225,2.273,1.452,3.496
			c0.227,1.222,0.07,2.516-0.47,3.879c-0.618,1.562-1.535,2.746-2.751,3.553s-2.645,1.219-4.286,1.236s-3.393-0.342-5.254-1.078
			c-1.109-0.438-2.193-0.968-3.252-1.587c-1.06-0.618-1.972-1.225-2.737-1.817s-1.282-1.072-1.551-1.441L170.938,411.316z"/>
		<path fill="#F5F5F5" d="M195.33,401.649l1.161-4.549l22.188,5.662l-1.161,4.55l-8.092-2.065l-6.081,23.828l-5.967-1.522
			l6.081-23.828L195.33,401.649z"/>
		<path fill="#F5F5F5" d="M232.993,411.224c1.263-2.097,2.942-3.639,5.038-4.624c2.096-0.986,4.502-1.431,7.22-1.333
			c2.654,0.095,4.953,0.779,6.896,2.053c1.944,1.274,3.398,3.044,4.363,5.312c0.965,2.267,1.369,4.858,1.213,7.774
			c-0.182,3.254-0.9,5.953-2.158,8.096c-1.259,2.144-2.938,3.71-5.041,4.7s-4.519,1.437-7.249,1.339
			c-2.692-0.097-5.006-0.809-6.941-2.136s-3.376-3.133-4.321-5.416s-1.34-4.875-1.184-7.776
			C231.008,415.983,231.73,413.32,232.993,411.224z M250.828,414.843c-0.454-1.488-1.175-2.668-2.164-3.54s-2.228-1.334-3.715-1.388
			c-1.423-0.051-2.704,0.246-3.845,0.892c-1.14,0.646-2.063,1.704-2.771,3.176c-0.708,1.472-1.104,3.38-1.188,5.723
			c-0.069,1.906,0.136,3.63,0.613,5.169c0.477,1.539,1.235,2.765,2.274,3.676s2.334,1.394,3.886,1.449
			c2.243,0.081,4.021-0.71,5.332-2.372s2.029-4.227,2.153-7.69C251.474,418.029,251.281,416.332,250.828,414.843z"/>
		<path fill="#F5F5F5" d="M285.5,402.474l3.682,29.055l-6.09,0.771l-12.448-15.123l-2.879-4.349l1.527,6.848l1.792,14.146
			l-5.65,0.716l-3.682-29.055l5.632-0.713l12.988,15.714l2.747,4.074l-1.438-6.917l-1.831-14.451L285.5,402.474z"/>
		<path fill="#F5F5F5" d="M296.798,399.441l6.499,23.758l10.171-2.782l1.229,4.491l-16.073,4.397l-7.728-28.25L296.798,399.441z"/>
		<path fill="#F5F5F5" d="M316.435,392.952l10.373,27.389l-5.758,2.181l-10.374-27.388L316.435,392.952z"/>
		<path fill="#F5F5F5" d="M343.381,379.848l13.593,25.941l-5.437,2.849l-16.945-9.825l-4.216-3.07l3.822,5.884l6.617,12.63
			l-5.045,2.644l-13.593-25.941l5.028-2.635l17.657,10.19l3.996,2.859l-3.763-5.979l-6.761-12.902L343.381,379.848z"/>
		<path fill="#F5F5F5" d="M362.341,366.21l2.765,3.795l-9.486,6.912l4.283,5.879l7.278-5.304l2.73,3.748l-7.278,5.304l4.624,6.345
			l10.497-7.648l2.845,3.903l-15.443,11.253l-17.247-23.671L362.341,366.21z"/>
	</g>
</g>
<g>
	<g>
		<path fill="#F5F5F5" d="M489.029,243.535c0-4.089-2.449-7.59-5.949-9.166c-0.051-1.217-0.098-2.434-0.168-3.646
			c-0.08-1.366-0.184-2.729-0.287-4.091c3.287-1.969,5.309-5.718,4.842-9.771c-0.143-1.258-0.338-2.516-0.502-3.777
			c-0.016-0.219,0.008-0.431-0.02-0.65c-0.18-1.377-0.416-2.753-0.617-4.129c-0.053-0.332-0.1-0.664-0.152-0.995
			c-0.66-4.356-1.402-8.708-2.297-12.981c-0.834-3.985-3.918-6.911-7.652-7.748c-0.629-2.526-1.33-5.021-2.039-7.516
			c2.807-2.585,4.035-6.647,2.771-10.512c-0.383-1.168-0.814-2.333-1.215-3.5c-0.064-0.247-0.09-0.497-0.176-0.743
			c-0.445-1.29-0.951-2.582-1.426-3.875c-0.131-0.364-0.264-0.724-0.398-1.087c-0.885-2.382-1.807-4.75-2.771-7.118
			c-0.121-0.301-0.232-0.608-0.355-0.907c-0.021-0.06-0.059-0.107-0.086-0.165c-0.543-1.315-1.057-2.641-1.623-3.945
			c-1.613-3.722-5.213-5.938-9.018-6.025c-0.916-1.91-1.914-3.773-2.883-5.655c-0.225-0.44-0.447-0.885-0.676-1.324
			c2.256-3.103,2.645-7.352,0.619-10.897c-0.686-1.205-1.422-2.388-2.131-3.583c-0.043-0.076-0.064-0.157-0.107-0.231
			c-0.221-0.367-0.459-0.725-0.678-1.09c-1.283-2.135-2.594-4.24-3.939-6.33c-0.152-0.236-0.303-0.471-0.459-0.706
			c-0.789-1.22-1.557-2.462-2.365-3.662c-0.168-0.247-0.375-0.446-0.559-0.674c-0.664-0.975-1.307-1.973-1.982-2.934
			c-2.324-3.309-6.283-4.76-10.016-4.092c-1.588-2.091-3.234-4.15-4.902-6.197c1.57-3.492,1.088-7.725-1.609-10.784
			c-0.953-1.083-1.951-2.131-2.928-3.201c-0.006-0.006-0.012-0.014-0.016-0.021c-0.037-0.039-0.076-0.077-0.111-0.115
			c-1.924-2.104-3.875-4.167-5.865-6.196c-0.262-0.268-0.525-0.533-0.791-0.802c-0.98-0.992-1.947-2.012-2.941-2.98
			c-0.166-0.165-0.361-0.282-0.541-0.433c-0.877-0.852-1.736-1.733-2.617-2.566c-2.955-2.791-7.15-3.42-10.691-1.984
			c-0.648-0.566-1.326-1.112-1.984-1.674c-1.346-1.152-2.676-2.321-4.047-3.442c0.818-3.719-0.492-7.739-3.719-10.188
			c-1.096-0.831-2.211-1.64-3.324-2.452c-0.066-0.049-0.115-0.111-0.182-0.16c-0.264-0.193-0.539-0.374-0.803-0.563
			c-0.033-0.026-0.07-0.051-0.102-0.076c-0.064-0.047-0.131-0.087-0.195-0.131c-3.193-2.308-6.473-4.527-9.795-6.688
			c-0.221-0.143-0.436-0.306-0.658-0.449c-0.057-0.036-0.119-0.055-0.174-0.091c-1.172-0.754-2.332-1.536-3.51-2.267
			c-3.475-2.154-7.723-1.922-10.898,0.209c-0.137-0.077-0.277-0.145-0.412-0.223c-2.148-1.214-4.311-2.402-6.5-3.55
			c0.072-3.824-2.027-7.521-5.703-9.275c-1.162-0.554-2.352-1.063-3.521-1.6c-0.156-0.082-0.291-0.188-0.451-0.263
			c-0.867-0.395-1.764-0.755-2.639-1.14c-1.16-0.513-2.318-1.014-3.484-1.506c-1.564-0.661-3.119-1.3-4.695-1.925
			c-0.689-0.275-1.375-0.58-2.062-0.846c-0.135-0.052-0.268-0.066-0.398-0.111c-1.246-0.479-2.48-0.99-3.725-1.445
			c-3.824-1.404-7.936-0.326-10.621,2.398c-0.059-0.019-0.121-0.035-0.18-0.054c-1.807-0.583-3.629-1.138-5.455-1.68
			c-0.629-0.185-1.252-0.397-1.881-0.579c-0.709-3.751-3.508-6.939-7.457-7.912c-1.318-0.325-2.658-0.6-3.986-0.903
			c-0.111-0.029-0.207-0.083-0.324-0.107c-0.592-0.135-1.197-0.242-1.793-0.373c-1.896-0.417-3.791-0.808-5.695-1.179
			c-1-0.194-1.994-0.38-2.998-0.562c-1.061-0.193-2.123-0.418-3.184-0.597c-0.203-0.034-0.402-0.019-0.605-0.041
			c-1.256-0.206-2.51-0.445-3.764-0.631c-4.064-0.608-7.855,1.287-9.92,4.498c-1.229-0.137-2.457-0.262-3.691-0.379
			c-1.373-0.129-2.744-0.295-4.119-0.401c-1.457-3.522-4.838-6.071-8.895-6.226c-1.396-0.054-2.793-0.053-4.189-0.083
			c-0.07-0.002-0.137-0.024-0.209-0.025c-0.418-0.008-0.838,0.004-1.254-0.002c-2.201-0.034-4.398-0.042-6.597-0.017
			c-1.01,0.012-2.012,0.032-3.021,0.055c-1.028,0.025-2.061,0.017-3.09,0.055c-0.17,0.006-0.324,0.053-0.492,0.069
			c-1.301,0.047-2.612,0.064-3.901,0.132c-4.068,0.216-7.424,2.83-8.819,6.39c-1.378,0.126-2.754,0.249-4.125,0.398
			c-1.182,0.13-2.359,0.302-3.54,0.45c-0.04,0.004-0.079,0.009-0.118,0.014c-2.113-3.184-5.932-5.022-9.994-4.355
			c-1.168,0.193-2.342,0.434-3.514,0.646c-0.275,0.028-0.547,0.015-0.824,0.066c-5.99,1.091-12.016,2.425-17.92,3.968
			c-3.938,1.028-6.697,4.26-7.354,8.022c-2.521,0.766-5.012,1.601-7.498,2.447c-2.726-2.681-6.853-3.702-10.641-2.245
			c-1.144,0.435-2.27,0.92-3.409,1.376c-0.225,0.072-0.451,0.104-0.673,0.195c-1.158,0.467-2.31,0.988-3.466,1.476
			c-0.656,0.276-1.306,0.554-1.96,0.836c-1.951,0.843-3.883,1.707-5.816,2.606c-0.515,0.238-1.049,0.457-1.56,0.698
			c-0.104,0.05-0.185,0.122-0.286,0.172c-1.215,0.576-2.447,1.125-3.651,1.722c-3.633,1.795-5.675,5.492-5.574,9.294
			c-2.319,1.255-4.596,2.603-6.878,3.938c-3.207-2.088-7.465-2.264-10.904-0.079c-1.21,0.773-2.405,1.603-3.61,2.403
			c-0.001,0.001-0.003,0.001-0.006,0.002c-0.009,0.006-0.019,0.013-0.028,0.019c-3.878,2.577-7.731,5.243-11.463,8.043
			c-0.255,0.191-0.457,0.423-0.688,0.632c-0.902,0.682-1.825,1.341-2.714,2.036c-3.193,2.485-4.445,6.51-3.592,10.208
			c-2.026,1.707-4.02,3.468-5.998,5.251c-3.562-1.386-7.753-0.699-10.672,2.143c-0.998,0.969-1.971,1.995-2.96,2.989
			c-0.024,0.026-0.056,0.042-0.081,0.068c-0.155,0.155-0.303,0.322-0.458,0.477c-1.745,1.77-3.462,3.562-5.164,5.396
			c-0.551,0.591-1.09,1.184-1.634,1.781c-0.791,0.868-1.603,1.714-2.38,2.593c-0.126,0.143-0.211,0.307-0.328,0.455
			c-0.821,0.932-1.673,1.85-2.476,2.79c-2.648,3.093-3.067,7.322-1.453,10.787c-0.294,0.373-0.574,0.766-0.866,1.141
			c-1.34,1.715-2.688,3.423-3.983,5.176c-3.758-0.633-7.714,0.886-9.997,4.242c-0.686,1.007-1.329,2.042-2.001,3.06
			c-0.132,0.174-0.289,0.321-0.411,0.507c-0.689,1.052-1.342,2.143-2.02,3.21c-0.375,0.591-0.747,1.18-1.115,1.773
			c-1.24,1.994-2.444,3.998-3.624,6.023c-0.187,0.322-0.395,0.641-0.581,0.962c-0.033,0.058-0.048,0.121-0.079,0.178
			c-0.687,1.192-1.403,2.373-2.066,3.571c-1.971,3.564-1.532,7.795,0.748,10.868c-0.11,0.215-0.207,0.435-0.314,0.651
			c-1.074,2.145-2.114,4.309-3.125,6.491c-3.828,0.114-7.42,2.404-8.992,6.167c-0.5,1.198-0.952,2.423-1.434,3.631
			c-0.058,0.132-0.144,0.245-0.196,0.383c-0.296,0.744-0.559,1.511-0.847,2.262c-0.564,1.463-1.11,2.922-1.645,4.395
			c-0.496,1.363-0.973,2.723-1.444,4.096c-0.279,0.812-0.587,1.62-0.856,2.433c-0.051,0.148-0.06,0.299-0.101,0.449
			c-0.407,1.233-0.844,2.461-1.229,3.697c-1.211,3.889,0.076,7.941,2.928,10.486c-0.022,0.09-0.043,0.178-0.066,0.266
			c-0.449,1.672-0.871,3.352-1.283,5.038c-0.194,0.792-0.418,1.58-0.604,2.373c-3.713,0.898-6.755,3.851-7.523,7.847
			c-0.254,1.301-0.456,2.626-0.687,3.938c-0.024,0.116-0.074,0.22-0.094,0.339c-0.109,0.624-0.19,1.258-0.293,1.885
			c-0.313,1.877-0.605,3.752-0.876,5.639c-0.151,1.062-0.294,2.117-0.432,3.182c-0.137,1.053-0.306,2.104-0.428,3.156
			c-0.022,0.195,0.002,0.381-0.009,0.574c-0.143,1.248-0.319,2.5-0.439,3.742c-0.398,4.055,1.68,7.766,4.987,9.684
			c-0.004,0.056-0.006,0.112-0.01,0.17c-0.07,1.192-0.143,2.385-0.195,3.584c-0.062,1.389-0.147,2.777-0.185,4.167
			c-3.446,1.63-5.825,5.134-5.781,9.196c0.017,1.318,0.083,2.657,0.121,3.984c-0.001,0.111-0.028,0.217-0.024,0.328
			c0.019,0.709,0.072,1.424,0.097,2.137c0.062,1.594,0.13,3.179,0.22,4.771c0.095,1.709,0.212,3.41,0.343,5.115
			c0.053,0.666,0.077,1.334,0.134,1.996c0.011,0.115,0.049,0.219,0.062,0.334c0.113,1.318,0.196,2.645,0.331,3.957
			c0.414,4.053,3.191,7.266,6.82,8.484c0.207,1.477,0.414,2.953,0.649,4.418c0.028,0.17,0.062,0.336,0.089,0.504
			c0.161,0.98,0.352,1.947,0.523,2.924c-3.064,2.283-4.702,6.203-3.843,10.182c0.242,1.123,0.534,2.242,0.794,3.367
			c0.04,0.277,0.041,0.555,0.106,0.836c1.379,5.91,3.016,11.873,4.858,17.715c1.218,3.863,4.576,6.355,8.344,6.838
			c0.907,2.535,1.887,5.035,2.877,7.529c-2.547,2.852-3.366,7.029-1.723,10.758c0.516,1.166,1.079,2.316,1.613,3.479
			c0.06,0.146,0.087,0.299,0.154,0.445c0.361,0.785,0.768,1.564,1.141,2.35c0.64,1.348,1.289,2.682,1.953,4.02
			c0.607,1.213,1.22,2.418,1.848,3.629c0.446,0.861,0.866,1.74,1.32,2.59c0.067,0.127,0.17,0.213,0.243,0.334
			c0.614,1.143,1.2,2.301,1.831,3.43c1.842,3.299,5.266,5.154,8.794,5.154c0.239,0,0.475-0.07,0.715-0.09
			c1.392,2.293,2.879,4.537,4.353,6.787c-1.928,3.311-1.89,7.57,0.474,10.893c3.539,4.975,7.315,9.873,11.217,14.559
			c0.177,0.215,0.398,0.371,0.591,0.568c0.732,0.871,1.44,1.768,2.183,2.629c1.994,2.312,4.802,3.496,7.631,3.496
			c0.923,0,1.84-0.162,2.739-0.418c1.826,1.959,3.704,3.883,5.603,5.789c-1.211,3.629-0.311,7.787,2.671,10.559
			c0.973,0.904,1.992,1.777,2.983,2.67c0.057,0.051,0.096,0.115,0.155,0.166c0.375,0.342,0.773,0.666,1.153,1
			c1.465,1.301,2.936,2.582,4.437,3.848c1.086,0.922,2.178,1.82,3.28,2.721c0.639,0.521,1.261,1.066,1.902,1.578
			c0.059,0.049,0.132,0.061,0.192,0.107c1.045,0.832,2.072,1.697,3.126,2.51c1.832,1.418,4,2.104,6.15,2.104
			c1.629,0,3.234-0.428,4.692-1.199c0.287,0.207,0.583,0.393,0.871,0.594c1.902,1.346,3.805,2.689,5.747,3.979
			c-0.445,3.785,1.26,7.66,4.723,9.775c1.039,0.633,2.106,1.227,3.157,1.846c0.166,0.111,0.304,0.248,0.479,0.35
			c0.988,0.582,2.008,1.125,3.01,1.693c0.812,0.461,1.621,0.92,2.44,1.371c1.849,1.021,3.701,2.016,5.575,2.99
			c0.453,0.234,0.899,0.494,1.352,0.725c0.067,0.035,0.142,0.045,0.208,0.076c1.198,0.613,2.386,1.254,3.587,1.844
			c1.43,0.697,2.936,1.029,4.426,1.029c2.309,0,4.51-0.879,6.306-2.344c0.306,0.139,0.613,0.256,0.919,0.387
			c2.069,0.908,4.154,1.781,6.255,2.631c0.092,0.037,0.183,0.078,0.273,0.115c0.311,3.814,2.772,7.283,6.604,8.666
			c1.215,0.436,2.459,0.828,3.688,1.246c0.121,0.049,0.227,0.117,0.35,0.16c0.693,0.234,1.408,0.441,2.106,0.672
			c1.615,0.531,3.227,1.047,4.853,1.545c1.256,0.385,2.51,0.754,3.773,1.121c0.914,0.264,1.823,0.561,2.739,0.812
			c0.125,0.033,0.249,0.02,0.375,0.051c1.252,0.344,2.498,0.719,3.753,1.041c0.841,0.217,1.686,0.32,2.512,0.32
			c3.045,0,5.828-1.469,7.719-3.785c0.172,0.039,0.345,0.07,0.518,0.107c1.525,0.326,3.057,0.633,4.593,0.932
			c0.944,0.184,1.885,0.402,2.831,0.574c1.085,3.654,4.189,6.539,8.211,7.113c1.322,0.188,2.663,0.324,3.994,0.49
			c0.079,0.012,0.149,0.043,0.229,0.051c0.438,0.057,0.884,0.088,1.323,0.141c2.263,0.271,4.521,0.508,6.791,0.713
			c0.711,0.066,1.419,0.123,2.133,0.184c1.263,0.104,2.527,0.238,3.787,0.322c0.227,0.014,0.448,0.021,0.676,0.021
			c0.089,0,0.171-0.021,0.261-0.025c1.103,0.07,2.206,0.172,3.307,0.223c0.172,0.008,0.338,0.014,0.504,0.014
			c3.862,0,7.234-2.213,8.913-5.471c0.11,0.002,0.22,0.002,0.33,0.004c0.802,0.008,1.59,0.061,2.391,0.061
			c0.467,0,0.926-0.033,1.393-0.037c1.303-0.008,2.607-0.008,3.91-0.039c1.707,3.195,5.043,5.348,8.848,5.348
			c0.207,0,0.418-0.008,0.631-0.02c1.107-0.07,2.219-0.186,3.33-0.266c0.033,0,0.064,0.008,0.102,0.008
			c0.256,0,0.52-0.008,0.779-0.029c1.061-0.082,2.123-0.209,3.186-0.305c1.008-0.094,2.012-0.184,3.02-0.291
			c2.33-0.238,4.641-0.512,6.955-0.816c0.291-0.037,0.59-0.064,0.881-0.104c0.045-0.008,0.084-0.023,0.131-0.031
			c1.354-0.184,2.721-0.338,4.062-0.543c4.027-0.617,7.113-3.553,8.15-7.236c2.666-0.514,5.311-1.088,7.947-1.689
			c1.893,2.258,4.641,3.688,7.635,3.688c0.861,0,1.742-0.113,2.619-0.348c1.139-0.305,2.275-0.662,3.414-0.986
			c0.225-0.047,0.449-0.031,0.676-0.096c5.875-1.693,11.746-3.625,17.436-5.736c3.812-1.414,6.234-4.902,6.512-8.709
			c2.504-1.041,4.969-2.156,7.43-3.281c1.789,1.436,3.971,2.297,6.258,2.297c1.518,0,3.062-0.344,4.508-1.072
			c1.172-0.59,2.326-1.229,3.49-1.838c0.086-0.039,0.176-0.051,0.26-0.096c0.521-0.273,1.031-0.574,1.551-0.854
			c1.928-1.029,3.83-2.074,5.723-3.148c0.514-0.291,1.02-0.582,1.531-0.881c1.178-0.678,2.377-1.334,3.535-2.027
			c0.215-0.127,0.389-0.301,0.594-0.443c0.988-0.598,1.998-1.172,2.973-1.781c3.424-2.141,5.088-6.006,4.623-9.766
			c2.234-1.514,4.418-3.115,6.605-4.709c1.436,0.742,3.012,1.15,4.607,1.15c2.186,0,4.391-0.711,6.234-2.172
			c4.781-3.773,9.482-7.789,13.979-11.926c0.211-0.195,0.367-0.422,0.559-0.631c0.812-0.754,1.652-1.484,2.453-2.246
			c2.936-2.793,3.787-6.932,2.564-10.533c1.268-1.303,2.494-2.662,3.734-4c0.605-0.65,1.24-1.271,1.838-1.928
			c0.875,0.24,1.77,0.395,2.666,0.395c2.867,0,5.717-1.223,7.711-3.592c0.807-0.963,1.582-1.963,2.379-2.939
			c0.084-0.096,0.182-0.16,0.262-0.26c0.598-0.729,1.164-1.492,1.752-2.23c0.779-0.984,1.549-1.961,2.312-2.951
			c1.242-1.611,2.451-3.23,3.65-4.867c0.285-0.393,0.594-0.775,0.873-1.166l0.49-0.688c0.023-0.035,0.039-0.076,0.062-0.111
			c0.635-0.885,1.297-1.752,1.916-2.641c2.328-3.342,2.328-7.598,0.379-10.883c0.211-0.33,0.4-0.67,0.607-0.998
			c1.365-2.145,2.703-4.309,3.998-6.5c0.219,0.014,0.436,0.08,0.654,0.08c3.576,0,7.043-1.912,8.859-5.281
			c0.486-0.896,0.938-1.828,1.414-2.736c0.07-0.121,0.174-0.211,0.242-0.34c0.609-1.17,1.178-2.371,1.773-3.557
			c0.424-0.848,0.848-1.689,1.264-2.541c0.883-1.809,1.727-3.621,2.559-5.445c0.283-0.617,0.59-1.227,0.867-1.844
			c0.039-0.088,0.053-0.182,0.09-0.271c0.438-0.98,0.904-1.951,1.324-2.93c1.607-3.738,0.758-7.9-1.814-10.729
			c0.127-0.326,0.232-0.654,0.355-0.979c0.738-1.945,1.445-3.904,2.133-5.871c0.172-0.496,0.367-0.986,0.535-1.48
			c3.762-0.537,7.086-3.072,8.25-6.951c0.314-1.047,0.586-2.115,0.885-3.17c0.023-0.076,0.074-0.131,0.1-0.203
			c0.234-0.838,0.438-1.693,0.666-2.533c0.441-1.613,0.871-3.219,1.277-4.84c0.318-1.264,0.613-2.525,0.912-3.797
			c0.25-1.076,0.535-2.148,0.773-3.223c0.035-0.158,0.027-0.316,0.055-0.475c0.213-0.988,0.463-1.975,0.664-2.963
			c0.818-3.986-0.863-7.895-3.955-10.146c0.033-0.197,0.061-0.396,0.092-0.596c0.227-1.391,0.439-2.785,0.639-4.184
			c0.188-1.291,0.422-2.576,0.584-3.871c3.588-1.283,6.295-4.529,6.652-8.568c0.096-1.1,0.148-2.219,0.232-3.322
			c0.006-0.061,0.025-0.115,0.027-0.176c0.031-0.414,0.043-0.832,0.072-1.246c0.162-2.366,0.299-4.73,0.395-7.106
			c0.027-0.729,0.047-1.452,0.068-2.179c0.047-1.436,0.121-2.873,0.143-4.303c0-0.193-0.041-0.374-0.053-0.564
			c0.012-0.975,0.057-1.957,0.057-2.929V243.535z M425.072,374.709c-41.734,57.861-109.297,92.404-180.727,92.404
			c-46.905,0-91.87-14.547-130.039-42.072c-48.23-34.781-80.023-86.262-89.529-144.959c-9.506-58.691,4.417-117.578,39.194-165.806
			c41.736-57.862,109.3-92.407,180.729-92.407c46.904,0,91.869,14.549,130.037,42.075
			C474.291,135.746,496.869,275.154,425.072,374.709z"/>
	</g>
</g>
<g>
	<polygon fill="#FFB74D" points="379.211,279.736 443.58,279.633 422.512,302.281 358.334,302.281 	"/>
	<polygon fill="#FFB74D" points="378.158,245.078 475.721,245.078 454.652,267.729 371.91,267.729 	"/>
</g>
<g>
	<polygon fill="#FFB74D" points="117.622,283.201 42.573,283.201 63.641,305.854 127.82,305.854 	"/>
	<polygon fill="#FFB74D" points="107.995,248.65 10.432,248.65 31.5,271.299 114.244,271.299 	"/>
</g>
<g>
	<g>
		<defs>
			<rect id="SVGID_1_" x="105.723" y="120.741" width="287.271" height="231.622"/>
		</defs>
		<clipPath id="SVGID_2_">
			<use xlink:href="#SVGID_1_"  overflow="visible"/>
		</clipPath>
		<path clip-path="url(#SVGID_2_)" fill="#ECF0F1" d="M378.036,264.102c-87.368,33.414-131.411,15.838-147.146,11.896
			c-20.881-5.244-39.269-18.237-50.403-36.646c-0.615-1.01-1.179-2.014-1.717-2.986c-11.778-21.472,7.243-47.246,31.212-42.301
			c26.729,5.508,40.93,1.515,48.421-0.172c2.815-0.639,5.483-1.664,8.029-3.081l49.106-27.417c-1.248-1.325-2.326-2.332-3.158-2.821
			c0,0-2.986-3.182-8.617-7.732c-40.979-32.977-98.481-35.79-143.476-8.543c-21.175,12.831-41.618,32.093-48.886,60.389
			c0,0-23.284,69.844,24.501,122.549c0,0,8.843,12.143,67.57,17.332c41.123,3.623,82.519,1.609,123.253-4.945
			c19.191-3.091,39.388-7.173,54.271-12.387c0,0,11.529-33.097,0.832-56.891L378.036,264.102z M378.036,264.102"/>
	</g>
	<path fill="#38454F" d="M193.752,327.356c-30.306,0-56.132-23.329-58.699-54.052c-0.221-2.766,1.809-5.195,4.574-5.416
		c2.812-0.312,5.189,1.812,5.407,4.584c2.255,26.879,25.902,46.928,52.806,44.676c2.837-0.293,5.188,1.836,5.407,4.578
		c0.251,2.766-1.812,5.189-4.575,5.404C197.029,327.283,195.371,327.356,193.752,327.356L193.752,327.356z M193.752,327.356"/>
	<path fill="#38454F" d="M388.244,241.99l-48.471-76.717c-3.965-6.292-12.142-8.467-18.727-4.945l-54.614,30.483
		c-2.521,1.417-5.214,2.442-8.029,3.081c-7.467,1.662-21.692,5.655-48.421,0.172c-23.969-4.945-42.99,20.829-31.212,42.301
		c0.538,0.973,1.102,1.959,1.717,2.986c11.159,18.409,29.522,31.402,50.403,36.616c16.004,4.021,61.172,22.16,151.355-13.482
		C390.227,259.352,392.821,249.242,388.244,241.99L388.244,241.99z M388.244,241.99"/>
	<path fill="#ECF0F1" d="M221.313,226.062c0,8.295-6.729,15.027-15.028,15.027c-8.322,0-15.052-6.732-15.052-15.027
		c0-8.305,6.729-15.033,15.052-15.033C214.584,211.029,221.313,217.758,221.313,226.062L221.313,226.062z M221.313,226.062"/>
	<path fill="none" stroke="#546A79" stroke-width="1.6" stroke-linecap="round" stroke-linejoin="round" stroke-miterlimit="10" d="
		M221.313,226.06c0,8.292-6.729,15.024-15.028,15.024c-8.322,0-15.052-6.732-15.052-15.024c0-8.299,6.729-15.03,15.052-15.03
		C214.584,211.029,221.313,217.761,221.313,226.06L221.313,226.06z M221.313,226.06"/>
</g>
</svg>
