<?xml version="1.0" encoding="utf-8"?>
<!-- Generator: Adobe Illustrator 16.0.0, SVG Export Plug-In . SVG Version: 6.00 Build 0)  -->
<!DOCTYPE svg PUBLIC "-//W3C//DTD SVG 1.1//EN" "http://www.w3.org/Graphics/SVG/1.1/DTD/svg11.dtd">
<svg version="1.1" id="Layer_1" xmlns="http://www.w3.org/2000/svg" xmlns:xlink="http://www.w3.org/1999/xlink" x="0px" y="0px"
	 width="25px" height="17px" viewBox="0 0 25 17" enable-background="new 0 0 25 17" xml:space="preserve">
<g transform="translate(0,-952.36218)">
	<path fill="#ffffff" d="M1.59,952.862c-0.078,0-0.156,0.012-0.229,0.029l10.585,9.951c0.261,0.246,0.846,0.246,1.108,0
		l10.586-9.951c-0.074-0.018-0.152-0.029-0.23-0.029H1.59z M0.551,953.747c-0.029,0.11-0.051,0.226-0.051,0.347v13.538
		c0,0.121,0.022,0.236,0.051,0.346l7.841-6.865L0.551,953.747z M24.448,953.747l-7.84,7.365l7.84,6.865
		c0.029-0.109,0.052-0.225,0.052-0.346v-13.538C24.5,953.973,24.478,953.857,24.448,953.747z M9.244,961.92l-7.875,6.915
		c0.071,0.016,0.146,0.027,0.221,0.027h21.819c0.076,0,0.15-0.012,0.221-0.027l-7.875-6.915l-2.002,1.876
		c-0.721,0.676-1.786,0.676-2.506,0L9.244,961.92L9.244,961.92z"/>
</g>
</svg>
